<?xml version="1.0" standalone="no"?>
<!DOCTYPE svg PUBLIC "-//W3C//DTD SVG 1.1//EN" "http://www.w3.org/Graphics/SVG/1.1/DTD/svg11.dtd">
<svg xmlns="http://www.w3.org/2000/svg">
<metadata>Copyright (C) 2020 by original authors @ fontello.com</metadata>
<defs>
<font id="fontello" horiz-adv-x="1000" >
<font-face font-family="fontello" font-weight="400" font-stretch="normal" units-per-em="1000" ascent="850" descent="-150" />
<missing-glyph horiz-adv-x="1000" />
<glyph glyph-name="left-open" unicode="&#xe800;" d="M690 833l-547-481 162-146h2l383-339 167 150-12 11-365 324 377 334z m0-38l124-109-377-334 377-335-124-112-372 329h-2l-130 117z" horiz-adv-x="1000" />

<glyph glyph-name="menu" unicode="&#xe801;" d="M14 568v-10-160h972v170z m21-21h930v-128h-930z m-21-245v-10-160h972v170z m21-20h930v-129h-930z" horiz-adv-x="1000" />

<glyph glyph-name="cancel" unicode="&#xe802;" d="M159 771l-145-126 342-295 0 0 0 0-342-295 145-126 341 294 341-294 145 126-341 294 1 1-1 1 341 294-145 126-341-294z m0-30l324-279-1-1 1-1-40-35-70-60-324 280z m684 0l111-96-325-280-64 55-47 41z m-343-296l110-95-110-95-53 46-56 49 56 49z m-127-110l70-60 40-35-1-1 1-1-324-279-110 96z m255-1l323-279-110-96-323 280 6 5z" horiz-adv-x="1000" />

<glyph glyph-name="check-circle-o" unicode="&#xe803;" d="M502 817c-270 0-486-205-486-456 0-251 219-456 486-456 270 0 486 203 486 456 0 250-216 456-486 456z m0-118c206 0 374-153 374-341 0-188-168-341-374-341-206 0-373 153-373 341 0 188 167 341 373 341z m44-137l-76-236-4 0-22 77-168 0 107-276 171 0 163 435-171 0z" horiz-adv-x="1000" />

<glyph glyph-name="check-outline" unicode="&#xe804;" d="M589 828l-156-482-39 142h-392l241-624h389l361 964z m22-934h-350l-217 564h329l45-166h30l163 506h334z" horiz-adv-x="1000" />

<glyph glyph-name="question-circle-o" unicode="&#xe805;" d="M759 482c-22 15-53 26-96 33-42 7-98 9-167 9-67 0-123-4-166-11-42-7-76-22-98-43-25-20-36-49-38-89h219c4 16 13 27 29 34 16 6 36 11 65 11 44 0 69-9 69-25 0-7-2-11-9-13-7-5-18-9-31-14l-45-13c-36-11-62-22-76-36-13-13-22-29-22-51v-9h203l2 4c3 7 5 11 14 18 7 5 20 11 40 18l54 16c33 11 56 22 71 35 14 14 23 34 23 59-9 29-21 51-41 67z m-375-246h208v-116h-208z m116 552c-266 0-480-199-480-445 0-246 216-445 480-445 266 0 481 199 481 445 0 244-215 445-481 445z m0-780c-203 0-369 150-369 333 0 183 166 333 369 333 203 0 369-150 369-333 0-183-166-333-369-333z" horiz-adv-x="1000" />

<glyph glyph-name="attention-circle-o" unicode="&#xe806;" d="M400 447l25-173h156l25 173v72h-206z m10-203h185v-130h-185z m93 542c-267 0-481-202-481-452 0-250 217-452 481-452 267 0 481 202 481 452 0 248-214 452-481 452z m0-793c-204 0-370 152-370 338 0 187 166 338 370 338 205 0 370-151 370-338 0-186-165-338-370-338z" horiz-adv-x="1000" />

<glyph glyph-name="check" unicode="&#xe807;" d="M438 306h-9l-47 170h-372l236-611h378l361 962h-379z" horiz-adv-x="1000" />

<glyph glyph-name="arrow-left" unicode="&#xe808;" d="M848 675l-164 144-531-468 528-470 161 146-360 324z" horiz-adv-x="1000" />

<glyph glyph-name="arrow-top" unicode="&#xe809;" d="M825 3l144 163-468 532-470-529 146-161 324 360z" horiz-adv-x="1000" />

<glyph glyph-name="arrow-right" unicode="&#xe80a;" d="M153 25l163-144 532 468-529 470-161-146 360-324z" horiz-adv-x="1000" />

<glyph glyph-name="arrow-bottom" unicode="&#xe80b;" d="M175 698l-144-164 468-531 470 528-146 161-324-360z" horiz-adv-x="1000" />

<glyph glyph-name="spinner" unicode="&#xe80c;" d="M475 794v-283l-85 269-47-15 84-269-160 228-41-30 162-229-222 166-29-41 222-166-261 87-16-49 261-87h-274v-51h274l-260-87 16-49 261 87-223-165 29-41 222 166-162-229 41-30 160 228-84-269 47-15 85 269v-283h50v283l84-269 47 15-84 269 161-228 40 30-161 229 222-167 29 41-222 166 261-87 16 49-261 87h274v51h-275l261 87-16 49-261-87 222 166-29 41-221-166 161 229-40 30-161-228 84 269-47 15-84-269v283z m105-444c0-45-37-81-81-81-44 0-80 36-80 81 0 44 36 80 80 80 45 0 81-36 81-80z" horiz-adv-x="1000" />

<glyph glyph-name="arrow-down" unicode="&#xe80d;" d="M219 847l-209-204 633-660 653 639-202 211-445-436-430 450z" horiz-adv-x="1429" />

<glyph glyph-name="plus" unicode="&#xe80e;" d="M928 248h-296v-304h-270v304h-296v252h296v304h270v-304h296v-252z" horiz-adv-x="1000" />

<glyph glyph-name="minus" unicode="&#xe80f;" d="M133 184v332h734v-332z" horiz-adv-x="1000" />

<glyph glyph-name="close" unicode="&#xe812;" d="M606 349l242 270-109 119-239-266-239 270-106-121 237-270-240-270 109-119 239 266 239-270 107 121z" horiz-adv-x="1000" />

<glyph glyph-name="box" unicode="&#xe814;" d="M870 750q12 0 21-9t9-21l0-120-900 0 0 120q0 12 9 21t21 9l840 0z m-820-730l0 530 800 0 0-530q0-30-21-50t-49-20l-660 0q-28 0-49 20t-21 50z m250 430l0-100 300 0 0 100-300 0z" horiz-adv-x="900" />

<glyph glyph-name="pencil" unicode="&#xe815;" d="M939 652l-50 62 0 1c-22 26-54 43-88 46-35 3-69-7-95-29l-577-471-6-5c-8-10-13-21-13-21l-90-217 0-1c-7-19-4-40 8-56l1-2c10-12 23-19 39-20 4-1 10-1 17 0l231 48 3-1 4 2c2 0 5 1 8 2 2 1 4 2 6 3 3 2 6 4 9 8l575 471c27 22 44 52 47 87 3 34-7 67-29 93z m-707-584l-96-16 39 82z m480 380l-396-323-69 82 395 324z m142 123c-1-2-2-6-5-9l-48-39-69 82 47 38c7 6 16 5 21-2l51-60c2-2 3-6 3-10z" horiz-adv-x="984" />

<glyph glyph-name="download" unicode="&#xe817;" d="M914 51h-358l216 210c23 22 23 59 1 83-23 23-60 23-83 1l-138-135v456c0 1 0 1 0 2v39c0 33-26 59-59 59-32 0-58-26-58-59v-498l-140 136c-24 22-61 21-83-1-23-24-22-61 1-84l216-209h-359c-32 0-58-26-58-58 0-33 26-59 58-59h844c33 0 58 26 58 59 0 31-25 58-58 58z" horiz-adv-x="984" />

<glyph glyph-name="refresh" unicode="&#xe818;" d="M940 638c-4 15-14 27-27 35-11 6-24 8-36 7-19-2-36-14-45-31l-1-2-26-80c-32 51-76 95-129 129-66 41-143 64-221 64-228 0-413-184-413-410 0-226 185-409 412-410 0 0 1 0 1 0 15 0 30 6 41 17 11 11 17 25 17 41 0 16-5 30-16 42-11 11-26 17-41 17-1 0-1 0-2 0-79 0-153 31-209 86-55 55-86 129-86 207 0 78 31 152 86 207 56 55 130 86 210 86 93 0 180-43 235-115l-63 20c-13 7-28 9-43 5-15-4-27-14-35-27-8-14-10-30-5-45 4-15 13-27 27-35 1-1 3-1 4-2l0 0 197-81c28-14 62-4 77 24l1 1 85 206c7 14 9 29 5 44z" horiz-adv-x="984" />

<glyph glyph-name="send" unicode="&#xe819;" d="M225 4l518 518 0-415c0-31 25-56 55-56 31 0 56 25 56 56l1 550c0 10-3 20-8 28 0 0 0 0 0 0 0 1-1 2-1 2 0 0 0 0-1 1 0 0 0 1-1 1 0 1 0 1 0 1-1 1-1 1-2 2 0 0 0 0 0 0-2 3-5 6-8 8 0 0 0 0 0 0-1 1-1 1-2 2 0 0 0 0 0 0-1 0-2 1-2 1 0 0 0 0-1 1 0 0-1 0-2 1 0 0 0 0 0 0-8 5-18 8-28 8l-550-1c-15 0-28-6-39-16-10-10-16-24-16-39 0-31 25-56 55-56l415 0-518-518c-22-22-22-57 0-79 22-22 57-22 79 0z" horiz-adv-x="984" />

<glyph glyph-name="eye" unicode="&#xe81a;" d="M941 367c-74 158-250 260-449 260-199 0-375-102-449-260l-8-17 8-17c74-158 250-260 449-260 199 0 375 102 449 260l8 17z m-449-212c-157 0-301 78-365 195 64 117 208 195 365 195 157 0 301-78 366-195-65-117-209-195-366-195z m0 348c-84 0-153-68-153-153 0-84 69-153 153-153 85 0 154 69 154 153 0 85-69 153-154 153z m0-224c-39 0-71 32-71 71 0 39 32 71 71 71 39 0 71-32 71-71 0-39-32-71-71-71z" horiz-adv-x="984" />

<glyph glyph-name="icons-05" unicode="&#xe81b;" d="M364 168l-127 126 505 0c10 0 18 7 18 15v89c0 9-8 16-18 16l-515 0 133 142c7 6 7 16 0 22l-63 53c-7 6-18 6-25 0l-244-265c0 0-17-16-5-28l260-247c7-6 19-6 26 0l55 55c7 6 7 16 0 22z m586 593h-477c0 0-6 1-11-4-3-3-3-8-3-8v-92c0 0 0-3 4-7 4-4 9-4 9-4h370v-594h-369c0 0-6 0-11-4-3-3-3-8-3-8v-90c0 0 0-4 4-8 4-3 9-3 9-3h478c9 0 16 6 16 13v796c0 7-7 13-16 13z" horiz-adv-x="984" />

<glyph glyph-name="icons-06" unicode="&#xe81c;" d="M946-31c-2 7-6 14-10 20-2 3-5 6-7 8l-270 270c14 19 26 38 36 59 15 32 26 66 31 101 5 37 4 75-3 111-6 33-17 64-33 94-17 34-41 65-69 92-28 26-60 48-95 64-28 13-59 22-90 26-16 3-33 4-50 5h0c-3 0-6 0-9 0-17-1-34-2-50-5-31-5-61-14-90-27-35-16-67-38-96-65-28-28-52-60-69-95-15-29-25-60-31-92-6-36-7-73-2-109 5-35 16-69 31-101 18-37 43-70 72-99 32-30 68-53 108-70 42-17 88-26 133-26 23 0 47 3 69 7 22 5 44 11 64 20 14 6 28 13 41 20l275-275 1-2c1-1 2-2 4-3 6-5 13-9 20-11 8-3 17-5 26-5 4 1 7 1 11 2 5 1 10 2 14 4 7 4 14 8 19 13 5 4 9 9 12 14 10 17 12 36 7 55z m-356 474c-4-21-10-41-19-59-11-23-26-43-45-61-19-18-41-32-65-42-26-10-53-15-81-15-27 1-55 6-80 17-24 10-46 25-65 43-18 18-32 39-43 61-9 19-15 40-18 60-3 24-2 47 3 70 4 19 11 38 20 55 11 20 25 39 42 55 17 15 37 28 58 38 14 6 28 10 43 13 4 1 7 2 11 2 10 2 20 3 31 3 2 0 3 0 5 0 11-1 21-2 31-3 18-3 36-9 54-17 20-10 39-23 55-38 17-16 31-35 42-55 9-18 16-37 19-57 5-23 5-47 2-70z" horiz-adv-x="984" />
</font>
</defs>
</svg>
