<svg width="15" height="15" viewBox="0 0 15 15" fill="none" xmlns="http://www.w3.org/2000/svg">
<path d="M12.1501 8.91L12.0151 9.235C11.3301 10.88 9.58013 12.43 7.20013 12.18C5.92013 12.045 4.76013 11.36 4.02013 10.305C3.33513 9.365 3.01013 8.21 3.09513 7.05C3.31513 5.115 5.22013 2.62 8.21513 2.945C9.17013 3.06 10.0501 3.455 10.7601 4.08H8.51013V6.125H13.8801V0.75H11.8351V2.31C10.8601 1.545 9.68013 1.055 8.44013 0.905C4.47013 0.475 1.42013 3.62 1.06513 6.825V6.83C0.910126 8.49 1.37013 10.145 2.35513 11.485C3.43513 13.02 5.12013 14.005 6.98513 14.2C7.23013 14.235 7.48513 14.255 7.73513 14.255C9.14013 14.255 10.4851 13.805 11.6251 12.95C12.6251 12.205 13.4351 11.16 13.9051 10.02L14.0401 9.7L12.1501 8.91Z" fill="#191919"/>
</svg>
