<?xml version="1.0" encoding="UTF-8" standalone="no"?>
<svg
   xmlns:dc="http://purl.org/dc/elements/1.1/"
   xmlns:cc="http://creativecommons.org/ns#"
   xmlns:rdf="http://www.w3.org/1999/02/22-rdf-syntax-ns#"
   xmlns:svg="http://www.w3.org/2000/svg"
   xmlns="http://www.w3.org/2000/svg"
   xmlns:sodipodi="http://sodipodi.sourceforge.net/DTD/sodipodi-0.dtd"
   xmlns:inkscape="http://www.inkscape.org/namespaces/inkscape"
   width="15"
   height="15"
   viewBox="0 0 15 15"
   fill="none"
   version="1.1"
   id="svg4"
   sodipodi:docname="send.svg"
   inkscape:version="0.92.4 (5da689c313, 2019-01-14)">
  <metadata
     id="metadata10">
    <rdf:RDF>
      <cc:Work
         rdf:about="">
        <dc:format>image/svg+xml</dc:format>
        <dc:type
           rdf:resource="http://purl.org/dc/dcmitype/StillImage" />
        <dc:title></dc:title>
      </cc:Work>
    </rdf:RDF>
  </metadata>
  <defs
     id="defs8" />
  <sodipodi:namedview
     pagecolor="#ffffff"
     bordercolor="#666666"
     borderopacity="1"
     objecttolerance="10"
     gridtolerance="10"
     guidetolerance="10"
     inkscape:pageopacity="0"
     inkscape:pageshadow="2"
     inkscape:window-width="1920"
     inkscape:window-height="1017"
     id="namedview6"
     showgrid="false"
     inkscape:zoom="22.250293"
     inkscape:cx="6.9447549"
     inkscape:cy="-0.012361026"
     inkscape:window-x="-8"
     inkscape:window-y="-8"
     inkscape:window-maximized="1"
     inkscape:current-layer="svg4" />
  <path
     style="fill:#000000;stroke-width:0.02046434"
     d="M 1.6517411,14.262266 C 1.5010903,14.246474 1.3130838,14.180955 1.2065062,14.10709 1.0584494,14.004491 0.85730673,13.766622 0.80899885,13.637012 0.69133912,13.321333 0.70712985,13.037876 0.85841935,12.74985 0.92074513,12.631191 1.4540489,12.090907 5.7972855,7.7463042 8.5636782,4.9790402 10.666282,2.8603166 10.666282,2.8399784 c 0,-0.033959 -0.200468,-0.035834 -3.903573,-0.036515 C 2.5566622,2.8026889 2.7349306,2.8072108 2.4997707,2.6953105 2.3426514,2.6205456 2.1082995,2.3830651 2.032876,2.2221828 1.8719474,1.8789137 1.9047262,1.4919253 2.1209272,1.1826474 2.2598634,0.9838972 2.4545059,0.852931 2.7261187,0.775441 2.7725187,0.762203 4.6661344,0.751178 8.1028222,0.744137 l 5.3050798,-0.010869 0.154424,0.053328 c 0.293978,0.1015193 0.554064,0.363426 0.652784,0.6573554 l 0.05352,0.1593462 -0.01036,5.2824304 c -0.006,3.0629217 -0.01821,5.320798 -0.02905,5.373748 -0.04965,0.242503 -0.206973,0.485346 -0.403361,0.622631 -0.309506,0.21636 -0.647244,0.260124 -0.995621,0.129014 -0.21725,-0.08176 -0.505187,-0.376327 -0.575452,-0.588699 -0.08098,-0.244766 -0.08086,-0.236801 -0.06669,-4.2295889 0.01011,-2.8508553 0.0077,-3.8547063 -0.0094,-3.8652732 -0.01392,-0.00865 -1.964469,1.9259494 -4.9066572,4.8663947 -5.1443741,5.1413474 -4.9629311,4.9658734 -5.1999534,5.0288644 -0.1403674,0.0373 -0.2988632,0.05218 -0.4203041,0.03944 z"
     id="path1561"
     inkscape:connector-curvature="0" />
</svg>
